# xmcd
#
# Track frame offsets:
# 150
# 14392
# 30764
# 35744
# 55948
# 76017
# 92516
# 108956
# 124887
# 136905
# 151397
# 169400
#
# Disc length: 2501 seconds
#
# Revision: 0
# Processed by: cddbd v1.5.2PL0 Copyright (c) Steve Scherf et al.
# Submitted via: Audion 3.0.2 (http://www.panic.com/audion/)
#
DISCID=8b09c30c
DTITLE=Steve Miller Band - Steve Miller Band Greatest Hits Disc 2
DYEAR=1900
DGENRE=
TTITLE0=Jungle Love
TTITLE1=Swingtown
TTITLE2=Threshold
TTITLE3=Jet Airliner
TTITLE4=The Joker
TTITLE5=Abracadara
TTITLE6=Give it Up
TTITLE7=The Stake
TTITLE8=True Fine Love
TTITLE9=Winter Time
TTITLE10=Rock It
TTITLE11=Come In to My Kitchen (Live)
EXTD=
EXTT0=
EXTT1=
EXTT2=
EXTT3=
EXTT4=
EXTT5=
EXTT6=
EXTT7=
EXTT8=
EXTT9=
EXTT10=
EXTT11=
PLAYORDER=
